<?xml version="1.0" encoding="UTF-8"?>
<svg version="1.1" viewBox="0 0 900 900" xml:space="preserve" xmlns="http://www.w3.org/2000/svg">
  <rect width="100%" height="100%" fill="black"/>
  <path fill="#B42724" d="M0 225 L 450 450 L 900 225 L 900 450 L 450 700 L 0 450"/>
  <path fill="#F5AF38" d="M360.218018,255.055328 C379.513367,255.055267 398.335693,255.007858 417.157288,255.100967 C420.373169,255.116882 422.392090,254.792816 423.894623,251.112335 C425.304138,247.659592 428.691742,245.014343 431.394592,241.792419 C428.733643,236.563690 429.269226,235.012939 434.410461,230.733871 C435.594635,229.748230 435.831604,227.378418 436.084381,225.586334 C436.359924,223.632538 436.147003,221.609863 436.147003,218.977753 C423.274231,218.977753 410.558258,218.977753 397.518616,218.977753 C397.518616,213.926056 397.518616,209.504013 397.518616,204.451202 C398.981964,204.373627 400.566528,204.220444 402.151459,204.216904 C412.145416,204.194626 422.139465,204.218277 432.133453,204.201416 C439.841644,204.188400 443.967346,198.984497 441.954773,191.633286 C441.258606,189.090347 440.035919,186.695328 439.138733,184.202179 C438.613251,182.742020 438.255432,181.221512 437.722870,179.385651 C446.007538,179.385651 453.638824,179.385651 462.012177,179.385651 C461.671356,180.998520 461.490295,182.479218 461.037506,183.871567 C460.016174,187.012405 458.668671,190.057327 457.802917,193.236328 C456.389587,198.425781 460.932190,204.133286 466.490601,204.180588 C476.483887,204.265671 486.478394,204.205231 496.472412,204.205582 C498.294678,204.205643 500.116943,204.205597 502.379150,204.205597 C502.379150,208.984848 502.379150,213.526520 502.379150,218.718109 C489.720276,218.718109 477.007660,218.718109 463.856873,218.718109 C463.856873,222.140884 463.694611,224.943115 463.937042,227.709885 C464.033508,228.810715 464.772583,230.164368 465.652039,230.836578 C470.768402,234.747345 471.239868,236.503418 468.900635,241.381165 C471.862000,245.599380 474.276093,249.454727 477.159821,252.919174 C478.165619,254.127502 480.326355,254.954605 481.966675,254.966232 C501.454041,255.104401 520.942932,255.105026 540.430847,255.016647 C544.714417,254.997238 548.612183,255.136566 549.288818,260.586792 C549.852661,265.128784 548.636902,267.996277 543.859619,270.267670 C539.248169,272.460297 535.678894,276.844910 532.025085,279.949371 C537.265381,288.863464 536.166809,291.575958 527.465515,295.255524 C529.353210,302.506104 527.477844,305.947815 520.203064,306.585876 C516.014893,306.953186 516.135132,310.033051 515.260498,312.316193 C512.417114,319.738068 512.563660,319.794373 504.629242,319.794403 C467.484833,319.794434 430.339996,319.714264 393.196472,319.896698 C388.601349,319.919250 386.105286,318.511780 385.211639,314.056580 C384.376404,309.892639 383.108521,306.684692 377.679382,306.116882 C372.213684,305.545288 370.821289,301.673645 372.624176,295.519379 C363.727997,290.900604 362.775543,288.630768 367.179565,281.481506 C363.444244,276.957123 360.433624,271.685608 354.241547,269.286682 C350.329620,267.771118 350.199158,264.091187 350.741211,260.415466 C351.555786,254.891739 355.558960,254.849258 360.218018,255.055328 z"/>
  <path fill="#F5AF38" d="M488.108551,430.645050 C488.512512,435.932983 488.521393,440.795380 489.295258,445.532806 C489.753235,448.336212 491.033569,451.197174 492.613007,453.590912 C498.203644,462.063965 498.813477,471.713745 499.699432,481.328552 C499.852020,482.984039 499.981171,484.670288 499.841553,486.318634 C499.455566,490.875366 500.587036,494.059540 504.727356,497.139038 C511.978149,502.531952 513.115173,511.268097 513.542847,519.648315 C513.799011,524.668091 513.968140,528.366089 519.692505,530.919128 C525.467712,533.494873 526.175781,540.157410 526.828003,546.040710 C527.062378,548.155090 527.052551,550.296448 527.159241,552.532166 C529.745483,552.992737 532.048340,553.228088 534.250427,553.831299 C538.820496,555.083191 540.689514,558.451843 540.295898,562.915833 C539.909851,567.293823 537.298218,569.840942 532.814941,570.186646 C531.157593,570.314453 529.486816,570.296936 527.822205,570.297119 C476.023071,570.302246 424.223938,570.303223 372.424805,570.299805 C363.385040,570.299194 360.049286,568.301941 359.615082,562.670227 C359.164124,556.820923 362.509491,554.068726 371.407867,552.946899 C371.721497,552.907410 372.015594,552.713013 372.590485,552.481262 C373.022430,548.867249 373.293915,545.081299 373.960968,541.366333 C374.988373,535.644775 377.746735,531.239197 383.477661,528.855408 C384.783966,528.312012 385.833893,526.012329 386.120148,524.367493 C387.029633,519.141479 386.773804,513.596802 388.401123,508.646210 C389.842896,504.260193 392.464355,499.628357 395.923584,496.722046 C399.206512,493.963806 399.931244,491.398865 400.212372,487.575531 C400.808167,479.472321 401.694672,471.355011 403.140015,463.366150 C403.767120,459.899963 406.126190,456.761993 407.591583,453.427917 C408.765839,450.756317 410.382568,448.090454 410.738800,445.286896 C411.513092,439.193176 411.607513,433.013123 411.925903,426.418762 C411.871918,415.840118 411.871918,405.711060 411.871918,394.788635 C405.790283,394.788635 400.046051,394.715759 394.304657,394.811737 C389.719757,394.888336 386.084839,393.602325 384.540466,388.831207 C383.092529,384.357941 384.676971,380.885223 389.406921,377.593262 C390.172455,377.060425 390.880005,375.955322 390.986023,375.041809 C391.774475,368.247467 393.851135,366.325348 400.872803,366.215454 C402.366272,366.192047 403.860413,366.212036 405.676300,366.212036 C405.676300,362.780884 405.676300,359.549286 405.676300,356.324371 C402.041412,355.791870 398.304749,355.794403 394.985504,354.618591 C390.858276,353.156586 390.508850,349.262115 390.929626,347.058350 C388.161255,343.308289 385.346405,340.921906 384.426727,337.949219 C382.571869,331.953888 386.980835,327.252502 393.904327,327.233307 C416.547333,327.170532 439.190552,327.198029 461.833710,327.196747 C476.152191,327.195953 490.470642,327.196838 504.789124,327.214752 C511.475189,327.223114 514.466736,329.038422 515.646301,333.729614 C516.841797,338.484253 514.691406,342.258331 509.161346,345.110962 C508.729004,354.528351 508.215790,354.913849 494.293823,356.083710 C494.293823,359.291809 494.293823,362.527252 494.293823,365.744293 C508.745483,367.694061 508.958710,367.853668 509.055847,375.502563 C511.545593,378.355042 514.085938,380.222412 515.176758,382.722260 C517.829041,388.800476 513.793701,394.544281 507.001190,394.744720 C500.895325,394.924896 494.779938,394.782654 488.035126,394.782654 C488.035126,406.943329 488.035126,418.555145 488.108551,430.645050 z"/>
  <path fill="#F5AF38" d="M327.113770,638.797668 C327.997894,637.579163 328.854004,636.568665 328.962311,635.483643 C329.476929,630.327148 331.563934,627.995544 336.596222,627.335754 C344.701843,626.273071 344.701843,626.273071 343.489227,617.146667 C341.365204,617.000488 339.110748,616.911438 336.871338,616.677917 C331.763611,616.145142 329.650238,613.838318 328.924133,608.796570 C328.728333,607.436951 327.786285,605.776428 326.668640,605.032043 C322.820557,602.469177 321.489075,599.018738 322.523682,594.712158 C323.618988,590.152954 326.936310,588.313110 331.425140,588.260010 C332.257355,588.250183 333.089691,588.244934 333.921967,588.244934 C411.327118,588.244263 488.732300,588.251099 566.137451,588.227783 C570.827393,588.226379 575.391846,588.456055 577.170227,593.828003 C578.869446,598.960632 577.289429,602.895874 572.374512,605.504944 C571.621216,605.904785 571.167419,607.334778 571.028931,608.350220 C570.211060,614.345947 568.104614,616.383972 562.073059,616.736938 C560.281006,616.841797 558.486877,616.912415 556.361389,617.014648 C556.361389,620.433472 556.361389,623.485413 556.361389,626.965393 C558.569519,627.077026 560.520813,627.139709 562.466431,627.280823 C568.152832,627.693481 570.259460,629.865295 571.060425,635.538635 C571.229492,636.736328 572.421936,637.789429 573.521729,638.955505 C577.572021,642.128052 578.923157,645.917419 577.149292,650.562439 C575.315918,655.363037 571.297852,655.838135 566.920227,655.813599 C558.940552,655.768860 550.960144,655.857910 542.050659,655.851135 C484.467102,655.793457 427.812836,655.772095 371.158600,655.766724 C367.498657,655.766357 363.838684,655.889099 360.178741,655.954529 C350.754211,655.899841 341.329651,655.802063 331.905151,655.809570 C327.532501,655.813049 323.978699,654.525879 322.647705,649.989319 C321.304321,645.410645 322.269470,641.488525 327.113770,638.797668 z"/>
</svg>